<svg xmlns="http://www.w3.org/2000/svg" width="161.614" height="97.663" viewBox="0 0 161.614 97.663"><g id="Grupo_54" data-name="Grupo 54" transform="translate(-61.845 -7.156)"><g id="Grupo_53" data-name="Grupo 53" transform="translate(66.843 12.164)"><path id="Caminho_236" data-name="Caminho 236" d="M301.685,305.993c-.022.032-.043.064-.067.1l-.086.656a3.325,3.325,0,0,1-.236.861c5.954,2.156,12.949,3.135,15.14,1.248,1.668-1.436,1.087-7.638-.532-12.766a71.176,71.176,0,0,1-14.219,9.9" transform="translate(-258.912 -253.425)" fill="#fff" stroke="#fff" stroke-width="10"></path><path id="Caminho_237" data-name="Caminho 237" d="M324.749,250.251c-1.161-2.263-9.189-3.113-14.933-2.237,1.143,1.24,2.387,2.634,3.743,4.211a94.654,94.654,0,0,1,7.742,10.283c2.783-4.791,4.591-10.023,3.448-12.257" transform="translate(-263.294 -228.52)" fill="#fff" stroke="#fff" stroke-width="10"></path><path id="Caminho_246" data-name="Caminho 246" d="M228.289,264.586c-.326,2.451,3,6.681,7.133,10.244.617-2.549,1.382-5.2,2.318-7.957a69.6,69.6,0,0,1,.01-8.384c-4.694,1.56-9.2,4.124-9.461,6.1" transform="translate(-221.348 -234.082)" fill="#fff" stroke="#fff" stroke-width="10"></path><path id="Caminho_238" data-name="Caminho 238" d="M268.458,314.692c-.266-.192-.529-.385-.792-.577a67.122,67.122,0,0,1-15.624-4.383c.152,5.122,1.606,10.955,3.57,11.715,2.582,1,8.636-2.184,13.283-6.064a3.068,3.068,0,0,1-.378-.576Z" transform="translate(-233.576 -260.442)" fill="#fff" stroke="#fff" stroke-width="10"></path><path id="Caminho_239" data-name="Caminho 239" d="M281.183,251.4a20.325,20.325,0,0,0-3.179.3c-5.2.9-11.734,2.452-17.087,5.23-.689,5.707-1.017,12.864.5,18.875a44.921,44.921,0,0,0,13.815,2.182,45.685,45.685,0,0,0,12.75-7.016c-.67-6.5-3.661-13.489-6.321-18.688-.154-.3-.315-.594-.479-.886" transform="translate(-237.844 -230.434)" fill="#fff" stroke="#fff" stroke-width="10"></path><path id="Caminho_240" data-name="Caminho 240" d="M278.68,230.806c-2.428-4.126-6.654-8.528-8.645-8.185-2.432.419-5.591,5.606-7.379,10.7a73.229,73.229,0,0,1,9.144.169c2.379-1.06,4.674-1.948,6.88-2.684" transform="translate(-239.036 -215.624)" fill="#fff" stroke="#fff" stroke-width="10"></path><path id="Caminho_241" data-name="Caminho 241" d="M281.249,226.665c-.626-1.224-8.327-6.608-21.7-4.521-6.319-11.324-14.9-14.128-16.223-13.9-1.68.291-9.129,6.976-12.257,18.88-11.924,2.838-16.863,9.82-17.038,11.115-.212,1.61,3.549,9.933,12.908,16.36-.753,13.613,5.434,20.769,6.72,21.267,1.563.608,11.055-1.215,19.729-9.412,10.917,4.823,20.472,3.365,21.741,2.271,1.042-.895,4.454-9.637-.715-22.129,6.8-9.254,7.583-18.475,6.839-19.932m-50.837,14.356c-.936,2.755-1.7,5.408-2.318,7.957-4.133-3.563-7.46-7.793-7.133-10.244.261-1.973,4.767-4.537,9.461-6.1a69.5,69.5,0,0,0-.01,8.384m45.061-11.059c1.142,2.233-.665,7.466-3.448,12.257a94.609,94.609,0,0,0-7.742-10.283c-1.356-1.577-2.6-2.972-3.743-4.212,5.744-.876,13.772-.025,14.933,2.238m-30.456-14.733c1.992-.342,6.217,4.059,8.645,8.185-2.206.735-4.5,1.623-6.88,2.684-.056-.005-.114-.009-.174-.013-.021.008-.039.018-.062.026a56.8,56.8,0,0,0-7.082-.132c.013-.036.026-.072.04-.11-.628.009-1.254.028-1.866.058,1.787-5.093,4.947-10.281,7.379-10.7m-8.963,54.009c-1.964-.76-3.418-6.594-3.57-11.715a67.146,67.146,0,0,0,15.624,4.382c.263.193.526.386.792.577l.059.115a3.069,3.069,0,0,0,.378.576c-4.647,3.881-10.7,7.069-13.283,6.065m15.354-13.455a44.892,44.892,0,0,1-13.815-2.182c-1.519-6.011-1.191-13.167-.5-18.875,5.353-2.778,11.884-4.334,17.087-5.23a20.331,20.331,0,0,1,3.179-.3c.165.291.325.585.479.886,2.66,5.2,5.651,12.186,6.321,18.687a45.661,45.661,0,0,1-12.75,7.016m20.134,7.881c-2.191,1.887-9.186.908-15.14-1.248a3.323,3.323,0,0,0,.236-.861l.086-.656.067-.1a71.2,71.2,0,0,0,14.219-9.9c1.62,5.128,2.2,11.329.532,12.766" transform="translate(-214.019 -208.232)" fill="#fff" stroke="#fff" stroke-width="10"></path><path id="Caminho_235" data-name="Caminho 235" d="M363.81,290.721a14.754,14.754,0,0,1-5.933-.566,11.745,11.745,0,0,1-4.657-2.722,12.144,12.144,0,0,1-2.936-4.542,13.972,13.972,0,0,1-.777-5.986l.006-.085a16.9,16.9,0,0,1,1.626-6.13,19.255,19.255,0,0,1,3.636-5.211,18.849,18.849,0,0,1,5.205-3.747,18.284,18.284,0,0,1,6.378-1.782,17.573,17.573,0,0,1,4.149.044,12.361,12.361,0,0,1,3.344.939,10.9,10.9,0,0,1,2.675,1.694,12.607,12.607,0,0,1,2.06,2.277l-6.571,5.366a8.359,8.359,0,0,0-2.633-2.265,6.368,6.368,0,0,0-3.646-.574,7.514,7.514,0,0,0-2.923.887,8.73,8.73,0,0,0-2.359,1.882,9.653,9.653,0,0,0-1.651,2.631,9.525,9.525,0,0,0-.752,3.091l-.006.084a8.32,8.32,0,0,0,.311,3.053,6.2,6.2,0,0,0,1.291,2.372,5.408,5.408,0,0,0,2.12,1.454,6.125,6.125,0,0,0,2.836.338,8.947,8.947,0,0,0,2.13-.455,7.8,7.8,0,0,0,1.8-.906,12.088,12.088,0,0,0,1.575-1.283q.751-.722,1.491-1.589l5.913,3.8A28.33,28.33,0,0,1,375,285.67a17.012,17.012,0,0,1-3.01,2.383,18.015,18.015,0,0,1-3.684,1.736,19.415,19.415,0,0,1-4.494.932" transform="translate(-283.688 -234.783)" fill="#fff" stroke="#fff" stroke-width="10"></path><path id="Caminho_232" data-name="Caminho 232" d="M408.714,257.166l14.121-1.347a16.723,16.723,0,0,1,5.784.287,8.077,8.077,0,0,1,3.712,1.993q2.463,2.282,2.15,6.631l-.006.084a10.626,10.626,0,0,1-2.07,5.818,13.3,13.3,0,0,1-4.725,3.847l6.385,9.623-9.557.912-5.372-8.377-.085.008-3.541.338-.643,8.951-8.276.79Zm12.717,12.877a5.822,5.822,0,0,0,3.353-1.264,3.758,3.758,0,0,0,1.335-2.665l.006-.085a2.563,2.563,0,0,0-1.005-2.525,4.943,4.943,0,0,0-3.223-.552l-5.418.518-.509,7.093Z" transform="translate(-313.073 -232.65)" fill="#fff" stroke="#fff" stroke-width="10"></path><path id="Caminho_233" data-name="Caminho 233" d="M461.685,252.82l8.319-.794-2.123,29.557-8.319.794Z" transform="translate(-340.321 -230.759)" fill="#fff" stroke="#fff" stroke-width="10"></path><path id="Caminho_242" data-name="Caminho 242" d="M323.974,322.445l7.978-.761,10.575,28.556-8.873.847-1.8-5.071-11.518,1.1-2.512,5.482-8.7.83Zm5.949,17.464-2.724-8.085-3.973,8.724Z" transform="translate(-262.938 -266.589)" fill="#fff" stroke="#fff" stroke-width="10"></path><path id="Caminho_243" data-name="Caminho 243" d="M370.192,319.01l14.12-1.347a16.72,16.72,0,0,1,5.784.287,8.059,8.059,0,0,1,3.712,1.993q2.464,2.282,2.151,6.631l-.006.084a10.626,10.626,0,0,1-2.07,5.817,13.3,13.3,0,0,1-4.725,3.848l6.384,9.623-9.556.912-5.372-8.378-.085.008-3.541.337-.643,8.952-8.276.79Zm12.717,12.877a5.82,5.82,0,0,0,3.353-1.264,3.758,3.758,0,0,0,1.335-2.665l.006-.084a2.563,2.563,0,0,0-1-2.525,4.945,4.945,0,0,0-3.223-.552l-5.418.517-.509,7.093Z" transform="translate(-293.258 -264.462)" fill="#fff" stroke="#fff" stroke-width="10"></path><path id="Caminho_244" data-name="Caminho 244" d="M431.289,319.373l-8.959.855.515-7.178,26.194-2.5-.516,7.178-8.959.855-1.607,22.379-8.276.79Z" transform="translate(-321.168 -260.862)" fill="#fff" stroke="#fff" stroke-width="10"></path><path id="Caminho_245" data-name="Caminho 245" d="M473.764,308.253l23.975-2.288-.5,6.967-15.827,1.51-.321,4.476,14.334-1.367-.464,6.46-14.334,1.368-.337,4.686,16.041-1.53-.5,6.967-24.188,2.308Z" transform="translate(-346.533 -258.504)" fill="#fff" stroke="#fff" stroke-width="10"></path><path id="Caminho_234" data-name="Caminho 234" d="M463.463,252.833l-.427,5.934,8.746-6.728Z" transform="translate(-342.107 -230.765)" fill="#fff" stroke="#fff" stroke-width="10"></path></g><g id="Grupo_52" data-name="Grupo 52" transform="translate(66.843 12.164)"><path id="Caminho_236-2" data-name="Caminho 236" d="M301.685,305.993c-.022.032-.043.064-.067.1l-.086.656a3.325,3.325,0,0,1-.236.861c5.954,2.156,12.949,3.135,15.14,1.248,1.668-1.436,1.087-7.638-.532-12.766a71.176,71.176,0,0,1-14.219,9.9" transform="translate(-258.912 -253.425)" fill="#f07a00"></path><path id="Caminho_237-2" data-name="Caminho 237" d="M324.749,250.251c-1.161-2.263-9.189-3.113-14.933-2.237,1.143,1.24,2.387,2.634,3.743,4.211a94.654,94.654,0,0,1,7.742,10.283c2.783-4.791,4.591-10.023,3.448-12.257" transform="translate(-263.294 -228.52)" fill="#d83146"></path><path id="Caminho_246-2" data-name="Caminho 246" d="M228.289,264.586c-.326,2.451,3,6.681,7.133,10.244.617-2.549,1.382-5.2,2.318-7.957a69.6,69.6,0,0,1,.01-8.384c-4.694,1.56-9.2,4.124-9.461,6.1" transform="translate(-221.348 -234.082)" fill="#ffd300"></path><path id="Caminho_238-2" data-name="Caminho 238" d="M268.458,314.692c-.266-.192-.529-.385-.792-.577a67.122,67.122,0,0,1-15.624-4.383c.152,5.122,1.606,10.955,3.57,11.715,2.582,1,8.636-2.184,13.283-6.064a3.068,3.068,0,0,1-.378-.576Z" transform="translate(-233.576 -260.442)" fill="#71a81b"></path><path id="Caminho_239-2" data-name="Caminho 239" d="M281.183,251.4a20.325,20.325,0,0,0-3.179.3c-5.2.9-11.734,2.452-17.087,5.23-.689,5.707-1.017,12.864.5,18.875a44.921,44.921,0,0,0,13.815,2.182,45.685,45.685,0,0,0,12.75-7.016c-.67-6.5-3.661-13.489-6.321-18.688-.154-.3-.315-.594-.479-.886" transform="translate(-237.844 -230.434)" fill="#fff"></path><path id="Caminho_240-2" data-name="Caminho 240" d="M278.68,230.806c-2.428-4.126-6.654-8.528-8.645-8.185-2.432.419-5.591,5.606-7.379,10.7a73.229,73.229,0,0,1,9.144.169c2.379-1.06,4.674-1.948,6.88-2.684" transform="translate(-239.036 -215.624)" fill="#0087cc"></path><path id="Caminho_241-2" data-name="Caminho 241" d="M281.249,226.665c-.626-1.224-8.327-6.608-21.7-4.521-6.319-11.324-14.9-14.128-16.223-13.9-1.68.291-9.129,6.976-12.257,18.88-11.924,2.838-16.863,9.82-17.038,11.115-.212,1.61,3.549,9.933,12.908,16.36-.753,13.613,5.434,20.769,6.72,21.267,1.563.608,11.055-1.215,19.729-9.412,10.917,4.823,20.472,3.365,21.741,2.271,1.042-.895,4.454-9.637-.715-22.129,6.8-9.254,7.583-18.475,6.839-19.932m-50.837,14.356c-.936,2.755-1.7,5.408-2.318,7.957-4.133-3.563-7.46-7.793-7.133-10.244.261-1.973,4.767-4.537,9.461-6.1a69.5,69.5,0,0,0-.01,8.384m45.061-11.059c1.142,2.233-.665,7.466-3.448,12.257a94.609,94.609,0,0,0-7.742-10.283c-1.356-1.577-2.6-2.972-3.743-4.212,5.744-.876,13.772-.025,14.933,2.238m-30.456-14.733c1.992-.342,6.217,4.059,8.645,8.185-2.206.735-4.5,1.623-6.88,2.684-.056-.005-.114-.009-.174-.013-.021.008-.039.018-.062.026a56.8,56.8,0,0,0-7.082-.132c.013-.036.026-.072.04-.11-.628.009-1.254.028-1.866.058,1.787-5.093,4.947-10.281,7.379-10.7m-8.963,54.009c-1.964-.76-3.418-6.594-3.57-11.715a67.146,67.146,0,0,0,15.624,4.382c.263.193.526.386.792.577l.059.115a3.069,3.069,0,0,0,.378.576c-4.647,3.881-10.7,7.069-13.283,6.065m15.354-13.455a44.892,44.892,0,0,1-13.815-2.182c-1.519-6.011-1.191-13.167-.5-18.875,5.353-2.778,11.884-4.334,17.087-5.23a20.331,20.331,0,0,1,3.179-.3c.165.291.325.585.479.886,2.66,5.2,5.651,12.186,6.321,18.687a45.661,45.661,0,0,1-12.75,7.016m20.134,7.881c-2.191,1.887-9.186.908-15.14-1.248a3.323,3.323,0,0,0,.236-.861l.086-.656.067-.1a71.2,71.2,0,0,0,14.219-9.9c1.62,5.128,2.2,11.329.532,12.766" transform="translate(-214.019 -208.232)" fill="#003457"></path><path id="Caminho_235-2" data-name="Caminho 235" d="M363.81,290.721a14.754,14.754,0,0,1-5.933-.566,11.745,11.745,0,0,1-4.657-2.722,12.144,12.144,0,0,1-2.936-4.542,13.972,13.972,0,0,1-.777-5.986l.006-.085a16.9,16.9,0,0,1,1.626-6.13,19.255,19.255,0,0,1,3.636-5.211,18.849,18.849,0,0,1,5.205-3.747,18.284,18.284,0,0,1,6.378-1.782,17.573,17.573,0,0,1,4.149.044,12.361,12.361,0,0,1,3.344.939,10.9,10.9,0,0,1,2.675,1.694,12.607,12.607,0,0,1,2.06,2.277l-6.571,5.366a8.359,8.359,0,0,0-2.633-2.265,6.368,6.368,0,0,0-3.646-.574,7.514,7.514,0,0,0-2.923.887,8.73,8.73,0,0,0-2.359,1.882,9.653,9.653,0,0,0-1.651,2.631,9.525,9.525,0,0,0-.752,3.091l-.006.084a8.32,8.32,0,0,0,.311,3.053,6.2,6.2,0,0,0,1.291,2.372,5.408,5.408,0,0,0,2.12,1.454,6.125,6.125,0,0,0,2.836.338,8.947,8.947,0,0,0,2.13-.455,7.8,7.8,0,0,0,1.8-.906,12.088,12.088,0,0,0,1.575-1.283q.751-.722,1.491-1.589l5.913,3.8A28.33,28.33,0,0,1,375,285.67a17.012,17.012,0,0,1-3.01,2.383,18.015,18.015,0,0,1-3.684,1.736,19.415,19.415,0,0,1-4.494.932" transform="translate(-283.688 -234.783)" fill="#003457"></path><path id="Caminho_232-2" data-name="Caminho 232" d="M408.714,257.166l14.121-1.347a16.723,16.723,0,0,1,5.784.287,8.077,8.077,0,0,1,3.712,1.993q2.463,2.282,2.15,6.631l-.006.084a10.626,10.626,0,0,1-2.07,5.818,13.3,13.3,0,0,1-4.725,3.847l6.385,9.623-9.557.912-5.372-8.377-.085.008-3.541.338-.643,8.951-8.276.79Zm12.717,12.877a5.822,5.822,0,0,0,3.353-1.264,3.758,3.758,0,0,0,1.335-2.665l.006-.085a2.563,2.563,0,0,0-1.005-2.525,4.943,4.943,0,0,0-3.223-.552l-5.418.518-.509,7.093Z" transform="translate(-313.073 -232.65)" fill="#003457"></path><path id="Caminho_233-2" data-name="Caminho 233" d="M461.685,252.82l8.319-.794-2.123,29.557-8.319.794Z" transform="translate(-340.321 -230.759)" fill="#003457"></path><path id="Caminho_242-2" data-name="Caminho 242" d="M323.974,322.445l7.978-.761,10.575,28.556-8.873.847-1.8-5.071-11.518,1.1-2.512,5.482-8.7.83Zm5.949,17.464-2.724-8.085-3.973,8.724Z" transform="translate(-262.938 -266.589)" fill="#003457"></path><path id="Caminho_243-2" data-name="Caminho 243" d="M370.192,319.01l14.12-1.347a16.72,16.72,0,0,1,5.784.287,8.059,8.059,0,0,1,3.712,1.993q2.464,2.282,2.151,6.631l-.006.084a10.626,10.626,0,0,1-2.07,5.817,13.3,13.3,0,0,1-4.725,3.848l6.384,9.623-9.556.912-5.372-8.378-.085.008-3.541.337-.643,8.952-8.276.79Zm12.717,12.877a5.82,5.82,0,0,0,3.353-1.264,3.758,3.758,0,0,0,1.335-2.665l.006-.084a2.563,2.563,0,0,0-1-2.525,4.945,4.945,0,0,0-3.223-.552l-5.418.517-.509,7.093Z" transform="translate(-293.258 -264.462)" fill="#003457"></path><path id="Caminho_244-2" data-name="Caminho 244" d="M431.289,319.373l-8.959.855.515-7.178,26.194-2.5-.516,7.178-8.959.855-1.607,22.379-8.276.79Z" transform="translate(-321.168 -260.862)" fill="#003457"></path><path id="Caminho_245-2" data-name="Caminho 245" d="M473.764,308.253l23.975-2.288-.5,6.967-15.827,1.51-.321,4.476,14.334-1.367-.464,6.46-14.334,1.368-.337,4.686,16.041-1.53-.5,6.967-24.188,2.308Z" transform="translate(-346.533 -258.504)" fill="#003457"></path><path id="Caminho_234-2" data-name="Caminho 234" d="M463.463,252.833l-.427,5.934,8.746-6.728Z" transform="translate(-342.107 -230.765)" fill="#0081c8"></path></g></g></svg>