<?xml version="1.0" encoding="UTF-8"?><svg id="Layer_2" xmlns="http://www.w3.org/2000/svg" viewBox="0 0 674.3 161.24"><defs><style>.cls-1{fill:#f58220;}.cls-2{fill:#faa61a;}.cls-3{fill:#ffcb05;}.cls-4{fill:#a70e13;}.cls-5{fill:#d71920;}.cls-6{fill:#414141;}</style></defs><g id="Layer_1-2"><path class="cls-5" d="m104.03,79.28l9.43-63.19c1.08-8.53-4.44-15.41-12.76-16.09h-2.68c-.06,0-.11,0-.17,0h0s-61.31,0-61.31,0l7.24,8.51h.1l52.63,61.86h-.06l7.58,8.91Z"/><path class="cls-4" d="m104.68,74.93l.65-4.38-.65,4.38Z"/><polygon class="cls-4" points="96.6 70.55 71.88 70.55 100.34 104.01 104.03 79.28 96.6 70.55"/><polygon class="cls-3" points="43.79 8.51 36.55 0 0 0 2.25 2.64 2.4 2.64 45.61 53.44 57.48 53.44 19.25 8.51 43.79 8.51"/><polygon class="cls-2" points="33.55 53.44 45.61 53.44 38.37 44.93 14.25 44.93 50.06 87.27 57.3 95.78 69.58 95.78 33.55 53.44"/><polygon class="cls-1" points="48.14 95.78 57.3 95.78 50.06 87.27 28.83 87.27 91.8 161.24 93.6 149.19 48.14 95.78"/><path class="cls-6" d="m248.42,33.77c-6.06,0-11.63,1.06-16.72,3.19-5.08,2.13-9.56,5.26-13.4,9.41-3.58,3.91-6.31,8.48-8.18,13.7-1.88,5.22-2.81,10.91-2.81,17.06,0,10.61,3.21,19.02,9.61,25.22,6.41,6.2,15.12,9.31,26.13,9.31,6.19,0,11.86-1.1,17.01-3.31,5.15-2.21,9.7-5.49,13.65-9.84,3.41-3.75,6.02-8.17,7.81-13.27,1.79-5.1,2.69-10.68,2.69-16.75,0-10.8-3.18-19.29-9.54-25.47-6.35-6.17-15.11-9.26-26.25-9.26m7.57,52.05c-3.18,4.89-7.34,7.33-12.5,7.33-4.15,0-7.31-1.33-9.49-3.99-2.18-2.66-3.26-6.53-3.26-11.62,0-7.6,1.6-13.75,4.79-18.45,3.19-4.7,7.36-7.05,12.47-7.05,3.95,0,7.06,1.27,9.34,3.82,2.27,2.54,3.41,6.04,3.41,10.49,0,8.1-1.59,14.59-4.77,19.47"/><path class="cls-6" d="m329.68,35.78l-16.96,43.72c-.3.83-.61,1.93-.93,3.29-.32,1.35-.65,3.05-.98,5.1.07-1.07.12-1.89.15-2.43.04-.56.05-1.04.05-1.44,0-.87-.04-1.74-.1-2.63-.07-.89-.16-1.76-.25-2.63l-4.81-42.97h-22.7l13.66,73.94h23.44l33.93-73.94h-24.5Z"/><path class="cls-6" d="m199.97,102.83c.03-.21.05-.41.06-.61h.08l10.14-66.44h-21.98l-5.68,37.69c-.17,1.17-.29,2.51-.37,4-.08,1.48-.13,3.09-.13,4.79-.06-1.57-.26-3.08-.57-4.52-.32-1.44-.78-2.85-1.38-4.22l-17.17-37.75h-15.38c-3.35.34-6.34,2.96-7.14,6.27l-10.15,67.66h21.89l5.57-38.05c.13-.91.23-1.89.3-2.94.07-1.06.1-2.2.1-3.44v-2.01c.17,1.77.39,3.37.68,4.79.28,1.42.58,2.5.88,3.24l17.47,38.4h14.95c3.75-.09,7.24-3.13,7.84-6.89"/><path class="cls-6" d="m510.44,35.78c-3.69.15-6.21,3.4-7.46,5.58l-.89,1.82s-.03.09-.03.1h-.02l-32.52,66.45h23.94l3.72-8.83h23.54l1.16,8.83h22.29l-14.81-73.94h-18.91Zm-7.39,50.19l11.29-27.36,3.92,27.36h-15.21Z"/><path class="cls-6" d="m451.92,103.32l2.93-20.1h24.29l2.76-17.62h-24.44l1.86-11.69h28.76l2.86-18.12h-45.29c-3.63.11-6.98,2.98-7.71,6.58l-10.2,67.36h16.45c3.59-.08,6.91-2.87,7.72-6.4"/><path class="cls-6" d="m588.38,66.35c-1.77-.77-4.13-1.77-7.08-3.01-7.42-3.08-11.14-5.71-11.14-7.89,0-1.43.63-2.64,1.89-3.61,1.25-.97,2.85-1.46,4.79-1.46,2.91,0,5.15.62,6.73,1.83,1.58,1.23,2.53,3.09,2.86,5.6h22.09c-.57-7.59-3.58-13.49-9.04-17.67-5.46-4.18-12.85-6.27-22.19-6.27s-16.61,1.98-21.81,5.92c-5.2,3.95-7.8,9.44-7.8,16.47,0,5.02,1.54,9.24,4.64,12.67,3.1,3.43,8.98,7.05,17.64,10.87.84.37,2.01.87,3.52,1.51,6.15,2.61,9.24,5.12,9.24,7.53,0,1.94-.69,3.42-2.06,4.45-1.37,1.02-3.36,1.53-5.97,1.53-3.55,0-6.26-.73-8.15-2.19-1.89-1.45-2.84-3.54-2.84-6.25v-.2h-22.94c0,8.03,2.91,14.29,8.76,18.78,5.84,4.48,13.99,6.72,24.47,6.72s17.88-2.08,23.44-6.25c5.55-4.17,8.33-10,8.33-17.49,0-4.79-1.4-8.93-4.22-12.43-2.81-3.5-7.19-6.55-13.16-9.16"/><path class="cls-6" d="m665.6,93.22l.18-1.37h-33.92l1.56-11.85h30.21l2.66-16.46h-30.32l1.66-10.14h33.88l2.79-17.62h-50.36c-3.58.11-6.88,2.9-7.67,6.42l-10.32,67.52h57.03l2.61-16.5Z"/><path class="cls-6" d="m372.79,35.78c-3.49.14-5.92,3.03-7.24,5.19l-33.65,68.75h23.94l3.71-8.83h23.54l1.16,8.83h22.29l-14.81-73.94h-18.94Zm-7.36,50.19l11.29-27.36,3.92,27.36h-15.21Z"/><polygon class="cls-6" points="382.37 126.41 381.76 129.91 370.67 129.91 369.2 138.19 380.29 138.19 379.68 141.7 368.59 141.7 367.13 149.98 378.22 149.98 377.6 153.5 363 153.5 367.77 126.41 382.37 126.41"/><polygon class="cls-6" points="389.91 126.41 393.11 126.41 400.88 145.74 404.28 126.41 407.8 126.41 403.03 153.5 399.96 153.5 392.09 133.93 388.64 153.5 385.13 153.5 389.91 126.41"/><polygon class="cls-6" points="430.36 126.41 429.75 129.91 418.66 129.91 417.18 138.19 428.27 138.19 427.66 141.7 416.57 141.7 415.12 149.98 426.21 149.98 425.58 153.5 410.99 153.5 415.76 126.41 430.36 126.41"/><path class="cls-6" d="m441.35,144.83h-3.2l-1.53,8.67h-3.51l4.77-27.09h7.69c2.13.29,3.82,1.19,5.05,2.69,1.48,1.81,1.99,3.97,1.54,6.5-.44,2.55-1.72,4.73-3.84,6.53-1.45,1.24-2.53,1.94-3.22,2.1l4.38,9.26h-4.25l-3.89-8.67Zm-.58-14.9l-2,11.38h3.2c1.56,0,2.99-.56,4.3-1.67,1.31-1.11,2.1-2.46,2.37-4.04.28-1.57-.04-2.91-.96-4.01-.92-1.11-2.16-1.66-3.72-1.66h-3.2Z"/><path class="cls-6" d="m479.44,149.79c-3.25,2.66-6.67,4-10.26,4-3.83,0-6.85-1.35-9.08-4.05-2.22-2.7-3-5.96-2.32-9.79.67-3.82,2.59-7.08,5.77-9.79,3.18-2.71,6.68-4.06,10.51-4.06,3.58,0,6.71,1.46,9.4,4.39l-3.05,2.39c-2.03-2.15-4.36-3.22-6.97-3.22-2.83,0-5.43,1-7.81,3.01-2.37,2.01-3.8,4.44-4.3,7.28-.51,2.85.07,5.29,1.73,7.3,1.66,2.01,3.91,3.01,6.74,3.01,2.44,0,4.57-.65,6.4-1.93l1.46-8.18h3.51l-1.71,9.64Z"/><polygon class="cls-6" points="495.56 126.41 490.79 153.5 487.28 153.5 492.06 126.41 495.56 126.41"/><path class="cls-6" d="m513.93,126.41l5.08,27.09h-3.73l-1.8-9.59h-7.18l-5.16,9.59h-3.74l14.63-27.09h1.9Zm-1.1,14l-1.2-6.35-3.42,6.35h4.62Z"/><path class="cls-6" d="m549.49,139.6c-1.81-.64-3.2-1.56-4.18-2.75-.98-1.19-1.32-2.67-1-4.43.3-1.73,1.19-3.21,2.64-4.45s3.06-1.86,4.83-1.86,3.12.62,4.15,1.84c.58.68.97,1.76,1.19,3.23l-3.4,1.25c-.2-1.04-.44-1.72-.7-2.03-.46-.54-1.08-.81-1.86-.81s-1.51.27-2.16.82c-.65.55-1.04,1.22-1.18,2s.02,1.46.47,2.02c.51.61,1.27,1.17,2.29,1.68,2,.69,3.61,1.77,4.83,3.25,1.37,1.64,1.85,3.62,1.44,5.96-.42,2.34-1.6,4.33-3.55,5.99-1.95,1.65-4.08,2.48-6.41,2.48s-4.18-.83-5.54-2.49c-1.08-1.32-1.6-3.14-1.54-5.47l3.62-1.24c-.14,2,.14,3.42.83,4.25.8.97,1.89,1.46,3.25,1.46s2.62-.49,3.76-1.46c1.14-.97,1.83-2.15,2.08-3.52.24-1.36-.05-2.53-.85-3.5-.76-.93-1.76-1.67-3.01-2.22"/><path class="cls-6" d="m589.04,130.12c2.24,2.71,3.01,5.98,2.34,9.8-.68,3.83-2.61,7.09-5.8,9.8-3.19,2.71-6.7,4.06-10.52,4.06s-6.86-1.36-9.08-4.06c-2.23-2.71-3-5.98-2.33-9.8.68-3.83,2.61-7.1,5.79-9.8,3.18-2.71,6.69-4.06,10.52-4.06s6.86,1.36,9.09,4.06m-9.72-.52c-2.86,0-5.47,1.01-7.84,3.02-2.37,2.02-3.8,4.45-4.3,7.31-.51,2.86.07,5.29,1.73,7.31,1.67,2.02,3.92,3.03,6.77,3.03s5.47-1.01,7.84-3.03c2.37-2.02,3.81-4.46,4.32-7.31.5-2.86-.08-5.29-1.74-7.31-1.66-2.01-3.92-3.02-6.77-3.02"/><polygon class="cls-6" points="596.53 153.5 601.3 126.41 604.81 126.41 600.66 149.98 610.35 149.98 609.72 153.5 596.53 153.5"/><path class="cls-6" d="m631.49,126.41l5.08,27.09h-3.73l-1.8-9.59h-7.18l-5.16,9.59h-3.74l14.63-27.09h1.9Zm-1.1,14l-1.2-6.35-3.42,6.35h4.62Z"/><path class="cls-6" d="m651.07,144.83h-3.2l-1.53,8.67h-3.51l4.77-27.09h7.69c2.13.29,3.82,1.19,5.05,2.69,1.48,1.81,1.99,3.97,1.54,6.5-.44,2.55-1.72,4.73-3.84,6.53-1.45,1.24-2.53,1.94-3.22,2.1l4.38,9.26h-4.25l-3.89-8.67Zm-.58-14.9l-2,11.38h3.2c1.56,0,2.99-.56,4.3-1.67,1.31-1.11,2.1-2.46,2.37-4.04.28-1.57-.04-2.91-.96-4.01-.92-1.11-2.16-1.66-3.72-1.66h-3.2Z"/></g></svg>